<?xml version="1.0" encoding="UTF-8"?>
<svg id="Merged" xmlns="http://www.w3.org/2000/svg" viewBox="0 0 1000 1000">
  <defs>
    <style>
      .cls-1 {
        fill: #231815;
      }
    </style>
  </defs>
  <g>
    <g>
      <path id="regist_x5F_border" class="cls-1" d="M765,450v530H235V450h530M775,440H225v550h550V440h0Z"/>
      <g>
        <path class="cls-1" d="M80.79,257l51.13,127.62,51.13-127.62h26.75v156.41h-20.62v-60.91l1.93-65.74-51.35,126.65h-15.79l-51.24-126.33,2.04,65.42v60.91h-20.62v-156.41h26.64Z"/>
        <path class="cls-1" d="M334.62,341.12h-67.78v55.43h78.74v16.87h-99.37v-156.41h98.29v16.87h-77.67v50.38h67.78v16.87Z"/>
        <path class="cls-1" d="M397.9,257l51.13,127.62,51.13-127.62h26.75v156.41h-20.62v-60.91l1.93-65.74-51.35,126.65h-15.79l-51.24-126.33,2.04,65.42v60.91h-20.62v-156.41h26.64Z"/>
        <path class="cls-1" d="M683.64,340.26c0,15.33-2.58,28.7-7.73,40.12-5.16,11.42-12.46,20.14-21.91,26.16s-20.48,9.02-33.09,9.02-23.24-3.02-32.76-9.08c-9.53-6.05-16.92-14.68-22.18-25.89-5.26-11.21-7.97-24.19-8.11-38.94v-11.28c0-15.04,2.61-28.32,7.84-39.85,5.23-11.53,12.62-20.36,22.18-26.48s20.5-9.18,32.82-9.18,23.58,3.03,33.14,9.08c9.56,6.05,16.92,14.82,22.08,26.32s7.73,24.87,7.73,40.12v9.88ZM663.12,330.16c0-18.55-3.72-32.78-11.17-42.7-7.45-9.92-17.87-14.88-31.26-14.88s-23.29,4.96-30.78,14.88c-7.48,9.92-11.33,23.69-11.55,41.3v11.49c0,17.98,3.78,32.1,11.33,42.38,7.55,10.28,17.96,15.42,31.21,15.42s23.63-4.85,30.94-14.56c7.3-9.7,11.06-23.61,11.28-41.73v-11.6Z"/>
        <path class="cls-1" d="M771.94,350.14h-36.74v63.27h-20.73v-156.41h51.78c17.62,0,31.17,4.01,40.66,12.03,9.49,8.02,14.23,19.7,14.23,35.02,0,9.74-2.63,18.23-7.9,25.46-5.26,7.23-12.59,12.64-21.97,16.22l36.74,66.39v1.29h-22.13l-33.95-63.27ZM735.2,333.27h31.69c10.24,0,18.39-2.65,24.44-7.96,6.05-5.31,9.08-12.41,9.08-21.31,0-9.68-2.88-17.11-8.65-22.27-5.77-5.17-14.09-7.78-24.98-7.86h-31.58v59.4Z"/>
        <path class="cls-1" d="M897.73,335.53l40.82-78.53h23.42l-53.93,98.08v58.33h-20.62v-58.33l-53.93-98.08h23.63l40.61,78.53Z"/>
      </g>
    </g>
    <g>
      <path class="cls-1" d="M472.9,701.33h20.36c12.79-.26,22.85-4.75,30.18-13.48,7.32-8.72,10.99-20.51,10.99-35.35,0-33.33-12.45-50-37.35-50-11.72,0-21.07,4.46-28.05,13.38-6.98,8.92-10.47,20.74-10.47,35.45h-27.1c0-22.52,6.18-41.24,18.53-56.15,12.35-14.91,28.05-22.36,47.09-22.36,20.12,0,35.89,7.1,47.31,21.29,11.43,14.19,17.14,33.92,17.14,59.18,0,12.37-3,24.35-9.01,35.94-6.01,11.59-14.19,20.25-24.54,25.98,11.72,4.95,20.78,13.15,27.17,24.61,6.4,11.46,9.59,25.46,9.59,41.99,0,25.52-6.25,45.77-18.75,60.74-12.5,14.97-28.76,22.46-48.78,22.46s-36.31-7.23-48.85-21.68c-12.55-14.45-18.82-33.53-18.82-57.23h27.25c0,14.97,3.66,26.95,10.99,35.94s17.14,13.48,29.44,13.48c13.08,0,23.09-4.56,30.03-13.67,6.93-9.11,10.4-22.2,10.4-39.26s-3.81-29.23-11.43-38.09c-7.62-8.85-18.6-13.41-32.96-13.67h-20.36v-29.49Z"/>
      <path class="cls-1" d="M497.21,866.5c-20.38,0-37.2-7.47-49.99-22.2-12.73-14.67-19.19-34.25-19.19-58.21v-1.5h30.25v1.5c0,14.55,3.58,26.32,10.65,34.99,6.99,8.58,16.51,12.92,28.28,12.92,12.53,0,22.23-4.4,28.84-13.08,6.7-8.8,10.09-21.71,10.09-38.35s-3.72-28.57-11.06-37.11c-7.29-8.47-18.01-12.9-31.85-13.15h-21.83s0-32.49,0-32.49h21.86c12.25-.25,22.03-4.6,29.03-12.94,7.06-8.4,10.64-19.97,10.64-34.39,0-32.64-11.73-48.5-35.85-48.5-11.18,0-20.22,4.31-26.87,12.8-6.74,8.61-10.15,20.22-10.15,34.52v1.5h-30.1v-1.5c0-22.78,6.35-41.99,18.88-57.11,12.59-15.2,28.83-22.91,48.25-22.91,20.5,0,36.81,7.35,48.48,21.85,11.59,14.4,17.47,34.63,17.47,60.12,0,12.56-3.09,24.88-9.18,36.63-5.62,10.84-13.22,19.28-22.61,25.11,10.71,5.16,19.18,13.24,25.22,24.05,6.49,11.63,9.79,26.01,9.79,42.72,0,25.76-6.43,46.52-19.1,61.7-12.74,15.26-29.54,23-49.93,23ZM431.05,787.59c.26,22.53,6.47,40.94,18.45,54.74,12.19,14.04,28.25,21.16,47.72,21.16s35.48-7.38,47.63-21.92c12.21-14.63,18.4-34.74,18.4-59.78,0-16.2-3.16-30.08-9.4-41.26-6.2-11.1-15.1-19.17-26.45-23.96l-2.84-1.2,2.7-1.49c10.04-5.56,18.09-14.09,23.93-25.35,5.87-11.32,8.84-23.18,8.84-35.25,0-24.79-5.65-44.38-16.81-58.24-11.08-13.75-26.6-20.73-46.15-20.73-18.49,0-33.94,7.34-45.94,21.82-11.79,14.23-17.9,32.29-18.18,53.7h24.1c.24-14.31,3.86-26.03,10.78-34.87,7.25-9.26,17.08-13.95,29.23-13.95,25.78,0,38.85,17.33,38.85,51.5,0,15.14-3.81,27.36-11.34,36.32-7.58,9.03-18.11,13.74-31.29,14.01h-18.89v26.49h18.86c14.76.27,26.23,5.05,34.1,14.19,7.82,9.1,11.79,22.24,11.79,39.06s-3.6,30.83-10.71,40.17c-7.2,9.46-17.71,14.26-31.22,14.26-12.72,0-23.02-4.72-30.61-14.03-7.27-8.91-11.07-20.81-11.31-35.39h-24.25Z"/>
    </g>
  </g>
  <path class="cls-1" d="M753.87,210H246.13c-53.09,0-96.13-43.04-96.13-96.13v-7.74c0-53.09,43.04-96.13,96.13-96.13h507.74c53.09,0,96.13,43.04,96.13,96.13v7.74c0,53.09-43.04,96.13-96.13,96.13ZM503.74,185.83c15.86,0,28.13-3.83,36.81-11.48,8.68-7.66,13.02-18.18,13.02-31.58,0-8.75-2.34-16.29-7.02-22.61-4.68-6.32-11.06-10.61-19.12-12.87,6.83-2.94,12.24-7.09,16.2-12.46,3.96-5.37,5.95-11.54,5.95-18.51,0-13.12-4.09-23.04-12.25-29.74-8.17-6.7-20.35-10.05-36.56-10.05h-48.81v149.3h51.78ZM471.65,52.63h29.12c9.77,0,17.06,1.87,21.84,5.6,4.78,3.73,7.18,9.71,7.18,17.93,0,7.4-2.58,13.26-7.74,17.57-5.16,4.32-12.05,6.47-20.66,6.47h-29.74v-47.58ZM504.46,116c19.55,0,29.33,8.99,29.33,26.97,0,8.34-2.65,14.89-7.95,19.64-5.3,4.75-12.53,7.13-21.69,7.13h-32.5v-53.73h32.81Z"/>
</svg>