<?xml version="1.0" encoding="UTF-8"?>
<svg id="Merged" xmlns="http://www.w3.org/2000/svg" viewBox="0 0 1000 1000">
  <defs>
    <style>
      .cls-1 {
        fill: #231815;
      }
    </style>
  </defs>
  <g>
    <g>
      <path id="regist_x5F_border" class="cls-1" d="M765,450v530H235V450h530M775,440H225v550h550V440h0Z"/>
      <g>
        <path class="cls-1" d="M80.79,257l51.13,127.62,51.13-127.62h26.75v156.41h-20.62v-60.91l1.93-65.74-51.35,126.65h-15.79l-51.24-126.33,2.04,65.42v60.91h-20.62v-156.41h26.64Z"/>
        <path class="cls-1" d="M334.62,341.12h-67.78v55.43h78.74v16.87h-99.37v-156.41h98.29v16.87h-77.67v50.38h67.78v16.87Z"/>
        <path class="cls-1" d="M397.9,257l51.13,127.62,51.13-127.62h26.75v156.41h-20.62v-60.91l1.93-65.74-51.35,126.65h-15.79l-51.24-126.33,2.04,65.42v60.91h-20.62v-156.41h26.64Z"/>
        <path class="cls-1" d="M683.64,340.26c0,15.33-2.58,28.7-7.73,40.12-5.16,11.42-12.46,20.14-21.91,26.16s-20.48,9.02-33.09,9.02-23.24-3.02-32.76-9.08c-9.53-6.05-16.92-14.68-22.18-25.89-5.26-11.21-7.97-24.19-8.11-38.94v-11.28c0-15.04,2.61-28.32,7.84-39.85,5.23-11.53,12.62-20.36,22.18-26.48s20.5-9.18,32.82-9.18,23.58,3.03,33.14,9.08c9.56,6.05,16.92,14.82,22.08,26.32s7.73,24.87,7.73,40.12v9.88ZM663.12,330.16c0-18.55-3.72-32.78-11.17-42.7-7.45-9.92-17.87-14.88-31.26-14.88s-23.29,4.96-30.78,14.88c-7.48,9.92-11.33,23.69-11.55,41.3v11.49c0,17.98,3.78,32.1,11.33,42.38,7.55,10.28,17.96,15.42,31.21,15.42s23.63-4.85,30.94-14.56c7.3-9.7,11.06-23.61,11.28-41.73v-11.6Z"/>
        <path class="cls-1" d="M771.94,350.14h-36.74v63.27h-20.73v-156.41h51.78c17.62,0,31.17,4.01,40.66,12.03,9.49,8.02,14.23,19.7,14.23,35.02,0,9.74-2.63,18.23-7.9,25.46-5.26,7.23-12.59,12.64-21.97,16.22l36.74,66.39v1.29h-22.13l-33.95-63.27ZM735.2,333.27h31.69c10.24,0,18.39-2.65,24.44-7.96,6.05-5.31,9.08-12.41,9.08-21.31,0-9.68-2.88-17.11-8.65-22.27-5.77-5.17-14.09-7.78-24.98-7.86h-31.58v59.4Z"/>
        <path class="cls-1" d="M897.73,335.53l40.82-78.53h23.42l-53.93,98.08v58.33h-20.62v-58.33l-53.93-98.08h23.63l40.61,78.53Z"/>
      </g>
    </g>
    <g>
      <path class="cls-1" d="M562.84,650.94c0,14.19-2.81,26.83-8.42,37.89-5.62,11.07-13.21,19.73-22.78,25.98,11.13,6.38,19.95,15.69,26.44,27.93,6.49,12.24,9.74,26.11,9.74,41.6,0,24.61-6.23,44.21-18.68,58.79-12.45,14.58-28.83,21.88-49.15,21.88s-36.94-7.32-49.29-21.97c-12.35-14.65-18.53-34.21-18.53-58.69,0-15.36,3.15-29.23,9.45-41.6,6.3-12.37,15.01-21.74,26.15-28.12-9.47-6.25-16.94-14.91-22.41-25.98-5.47-11.07-8.2-23.63-8.2-37.7,0-23.96,5.76-42.97,17.29-57.03,11.52-14.06,26.71-21.09,45.56-21.09s33.91,7.03,45.48,21.09,17.36,33.08,17.36,57.03ZM540.72,783.55c0-15.88-3.79-28.84-11.35-38.87-7.57-10.03-17.46-15.04-29.66-15.04s-22,4.95-29.37,14.84c-7.37,9.9-11.06,22.92-11.06,39.06s3.59,28.84,10.77,38.09c7.18,9.25,17.16,13.87,29.96,13.87s22.66-4.65,29.88-13.96c7.23-9.31,10.84-21.97,10.84-37.99ZM500,602.5c-10.65,0-19.26,4.39-25.85,13.18s-9.89,20.74-9.89,35.84,3.25,26.14,9.74,35.06c6.49,8.92,15.16,13.38,26,13.38s19.51-4.46,26-13.38c6.49-8.92,9.74-20.61,9.74-35.06s-3.37-26.24-10.11-35.35c-6.74-9.11-15.28-13.67-25.63-13.67Z"/>
      <path class="cls-1" d="M500,866.5c-20.88,0-37.85-7.57-50.44-22.51-12.53-14.86-18.88-34.93-18.88-59.66,0-15.53,3.23-29.75,9.61-42.28,6.02-11.82,14.32-21.07,24.71-27.53-8.75-6.26-15.8-14.73-20.98-25.22-5.55-11.22-8.36-24.13-8.36-38.36,0-24.2,5.93-43.71,17.62-57.98,11.77-14.36,27.48-21.64,46.72-21.64s34.83,7.28,46.64,21.64c11.75,14.27,17.7,33.78,17.7,57.98,0,14.36-2.89,27.34-8.58,38.57-5.32,10.49-12.49,18.96-21.33,25.22,10.38,6.45,18.78,15.63,24.98,27.31,6.58,12.4,9.92,26.64,9.92,42.3,0,24.86-6.4,44.97-19.04,59.76-12.69,14.86-29.61,22.4-50.29,22.4ZM500,574.31c-18.29,0-33.23,6.91-44.4,20.54-11.24,13.72-16.95,32.59-16.95,56.08,0,13.77,2.71,26.23,8.05,37.03,5.32,10.77,12.69,19.32,21.89,25.39l2.03,1.34-2.11,1.21c-10.82,6.2-19.42,15.46-25.56,27.5-6.16,12.1-9.28,25.87-9.28,40.92,0,24,6.12,43.42,18.18,57.72,12,14.23,28.2,21.44,48.15,21.44s35.91-7.18,48-21.35c12.15-14.23,18.32-33.69,18.32-57.81,0-15.17-3.22-28.93-9.57-40.9-6.33-11.93-15.03-21.12-25.86-27.33l-2.12-1.22,2.05-1.34c9.3-6.08,16.79-14.62,22.26-25.4,5.48-10.8,8.26-23.32,8.26-37.21,0-23.49-5.73-42.36-17.02-56.08-11.22-13.63-26.13-20.55-44.33-20.55ZM500,837.01c-13.22,0-23.7-4.86-31.14-14.45-7.35-9.47-11.08-22.59-11.08-39.01s3.82-29.85,11.36-39.96c7.64-10.25,17.92-15.45,30.57-15.45s23.03,5.26,30.86,15.64c7.73,10.25,11.66,23.63,11.66,39.77s-3.75,29.37-11.16,38.91c-7.49,9.65-17.94,14.54-31.07,14.54ZM499.7,731.15c-11.81,0-21.03,4.66-28.17,14.24-7.14,9.58-10.76,22.42-10.76,38.17s3.52,28.23,10.45,37.17c6.84,8.82,16.52,13.29,28.77,13.29s21.8-4.5,28.7-13.38c6.98-9,10.52-21.47,10.52-37.07s-3.72-28.25-11.05-37.96c-7.24-9.58-16.81-14.44-28.47-14.44ZM500,701.46c-11.3,0-20.45-4.71-27.21-14-6.65-9.13-10.03-21.23-10.03-35.94s3.43-27.73,10.19-36.74c6.86-9.15,15.96-13.78,27.05-13.78s19.83,4.8,26.84,14.28c6.9,9.34,10.4,21.53,10.4,36.24s-3.37,26.8-10.03,35.94c-6.76,9.29-15.92,14-27.21,14ZM500,604c-10.24,0-18.3,4.12-24.65,12.58-6.36,8.48-9.59,20.24-9.59,34.94s3.18,25.56,9.45,34.18c6.25,8.59,14.36,12.76,24.79,12.76s18.54-4.17,24.79-12.76c6.27-8.61,9.45-20.11,9.45-34.18s-3.3-25.65-9.81-34.46c-6.5-8.79-14.49-13.06-24.43-13.06Z"/>
    </g>
  </g>
  <path class="cls-1" d="M753.87,210H246.13c-53.09,0-96.13-43.04-96.13-96.13v-7.74c0-53.09,43.04-96.13,96.13-96.13h507.74c53.09,0,96.13,43.04,96.13,96.13v7.74c0,53.09-43.04,96.13-96.13,96.13ZM503.74,185.82c15.86,0,28.13-3.83,36.81-11.48,8.68-7.66,13.02-18.18,13.02-31.58,0-8.75-2.34-16.29-7.02-22.61-4.68-6.32-11.06-10.61-19.12-12.87,6.83-2.94,12.24-7.09,16.2-12.46,3.96-5.37,5.95-11.54,5.95-18.51,0-13.12-4.09-23.04-12.25-29.74-8.17-6.7-20.35-10.05-36.55-10.05h-48.81v149.3h51.78ZM471.65,52.63h29.12c9.77,0,17.05,1.87,21.84,5.6,4.78,3.73,7.18,9.71,7.18,17.93,0,7.4-2.58,13.26-7.74,17.57-5.16,4.32-12.05,6.47-20.66,6.47h-29.74v-47.58ZM504.46,115.99c19.55,0,29.33,8.99,29.33,26.97,0,8.34-2.65,14.89-7.95,19.64-5.3,4.75-12.53,7.13-21.69,7.13h-32.5v-53.73h32.81Z"/>
</svg>