<?xml version="1.0" encoding="UTF-8"?>
<svg id="Merged" xmlns="http://www.w3.org/2000/svg" viewBox="0 0 1000 1000">
  <defs>
    <style>
      .cls-1 {
        fill: #231815;
      }
    </style>
  </defs>
  <g>
    <g>
      <path id="regist_x5F_border" class="cls-1" d="M765,450v530H235V450h530M775,440H225v550h550V440h0Z"/>
      <g>
        <path class="cls-1" d="M80.79,257l51.13,127.62,51.13-127.62h26.75v156.41h-20.62v-60.91l1.93-65.74-51.35,126.65h-15.79l-51.24-126.33,2.04,65.42v60.91h-20.62v-156.41h26.64Z"/>
        <path class="cls-1" d="M334.62,341.12h-67.78v55.43h78.74v16.87h-99.37v-156.41h98.29v16.87h-77.67v50.38h67.78v16.87Z"/>
        <path class="cls-1" d="M397.9,257l51.13,127.62,51.13-127.62h26.75v156.41h-20.62v-60.91l1.93-65.74-51.35,126.65h-15.79l-51.24-126.33,2.04,65.42v60.91h-20.62v-156.41h26.64Z"/>
        <path class="cls-1" d="M683.64,340.26c0,15.33-2.58,28.7-7.73,40.12-5.16,11.42-12.46,20.14-21.91,26.16s-20.48,9.02-33.09,9.02-23.24-3.02-32.76-9.08c-9.53-6.05-16.92-14.68-22.18-25.89-5.26-11.21-7.97-24.19-8.11-38.94v-11.28c0-15.04,2.61-28.32,7.84-39.85,5.23-11.53,12.62-20.36,22.18-26.48s20.5-9.18,32.82-9.18,23.58,3.03,33.14,9.08c9.56,6.05,16.92,14.82,22.08,26.32s7.73,24.87,7.73,40.12v9.88ZM663.12,330.16c0-18.55-3.72-32.78-11.17-42.7-7.45-9.92-17.87-14.88-31.26-14.88s-23.29,4.96-30.78,14.88c-7.48,9.92-11.33,23.69-11.55,41.3v11.49c0,17.98,3.78,32.1,11.33,42.38,7.55,10.28,17.96,15.42,31.21,15.42s23.63-4.85,30.94-14.56c7.3-9.7,11.06-23.61,11.28-41.73v-11.6Z"/>
        <path class="cls-1" d="M771.94,350.14h-36.74v63.27h-20.73v-156.41h51.78c17.62,0,31.17,4.01,40.66,12.03,9.49,8.02,14.23,19.7,14.23,35.02,0,9.74-2.63,18.23-7.9,25.46-5.26,7.23-12.59,12.64-21.97,16.22l36.74,66.39v1.29h-22.13l-33.95-63.27ZM735.2,333.27h31.69c10.24,0,18.39-2.65,24.44-7.96,6.05-5.31,9.08-12.41,9.08-21.31,0-9.68-2.88-17.11-8.65-22.28-5.77-5.17-14.09-7.78-24.98-7.86h-31.58v59.4Z"/>
        <path class="cls-1" d="M897.73,335.53l40.82-78.53h23.42l-53.93,98.08v58.33h-20.62v-58.33l-53.93-98.08h23.63l40.61,78.53Z"/>
      </g>
    </g>
    <g>
      <g>
        <path class="cls-1" d="M438.33,861.09h-27.25v-240.82l-54.64,26.76v-32.81l77.64-38.87h4.25v285.74Z"/>
        <path class="cls-1" d="M439.83,862.59h-30.25v-239.92l-54.64,26.76v-36.14l.83-.41,77.95-39.03h6.1v288.74ZM412.58,859.59h24.25v-282.74h-2.39l-76.49,38.29v29.48l54.64-26.76v241.72Z"/>
      </g>
      <g>
        <path class="cls-1" d="M632.13,765.59h29.59v29.49h-29.59v66.02h-27.25v-66.02h-97.12v-21.29l95.51-197.07h28.86v188.87ZM538.52,765.59h66.36v-139.45l-3.22,7.81-63.13,131.64Z"/>
        <path class="cls-1" d="M633.63,862.59h-30.25v-66.02h-97.12v-23.13l.15-.31,95.92-197.92h31.3v188.87h29.59v32.49h-29.59v66.02ZM606.38,859.59h24.25v-66.02h29.59v-26.49h-29.59v-188.87h-26.42l-94.95,195.92v19.44h97.12v66.02ZM606.38,767.09h-70.24l64.17-133.79,3.19-7.74,2.89.57v140.95ZM540.91,764.09h62.47v-130.38l-.34.81-62.14,129.57Z"/>
      </g>
    </g>
  </g>
  <path class="cls-1" d="M753.87,210H246.13c-53.09,0-96.13-43.04-96.13-96.13v-7.74c0-53.09,43.04-96.13,96.13-96.13h507.74c53.09,0,96.13,43.04,96.13,96.13v7.74c0,53.09-43.04,96.13-96.13,96.13ZM539.01,138.45c-1.91,12.3-5.79,20.94-11.64,25.89-5.84,4.96-14.24,7.43-25.17,7.43-12.17,0-21.64-4.79-28.4-14.37-6.77-9.58-10.15-22.48-10.15-38.69v-14.47c0-17.17,3.57-30.41,10.72-39.71,7.14-9.3,17-13.96,29.58-13.96,10.25,0,18.23,2.67,23.94,8.02,5.71,5.35,9.42,13.99,11.13,25.92h19.79c-1.57-15.65-7.14-27.91-16.71-36.76-9.57-8.85-22.29-13.28-38.14-13.28-11.96,0-22.49,2.82-31.58,8.46-9.09,5.64-16.12,13.72-21.07,24.25-4.96,10.53-7.43,22.73-7.43,36.61v14.36c0,21.19,5.31,38.11,15.94,50.76,10.63,12.65,24.76,18.97,42.4,18.97,16.27,0,29.31-4.29,39.12-12.87,9.81-8.58,15.64-20.76,17.48-36.56h-19.79Z"/>
</svg>