<?xml version="1.0" encoding="UTF-8"?>
<svg id="Merged" xmlns="http://www.w3.org/2000/svg" viewBox="0 0 1000 1000">
  <defs>
    <style>
      .cls-1 {
        fill: #231815;
      }
    </style>
  </defs>
  <g>
    <g>
      <path id="regist_x5F_border" class="cls-1" d="M765,450v530H235V450h530M775,440H225v550h550V440h0Z"/>
      <g>
        <path class="cls-1" d="M80.79,257l51.13,127.62,51.13-127.62h26.75v156.41h-20.62v-60.91l1.93-65.74-51.35,126.65h-15.79l-51.24-126.33,2.04,65.42v60.91h-20.62v-156.41h26.64Z"/>
        <path class="cls-1" d="M334.62,341.12h-67.78v55.43h78.74v16.87h-99.37v-156.41h98.29v16.87h-77.67v50.38h67.78v16.87Z"/>
        <path class="cls-1" d="M397.9,257l51.13,127.62,51.13-127.62h26.75v156.41h-20.62v-60.91l1.93-65.74-51.35,126.65h-15.79l-51.24-126.33,2.04,65.42v60.91h-20.62v-156.41h26.64Z"/>
        <path class="cls-1" d="M683.64,340.26c0,15.33-2.58,28.7-7.73,40.12-5.16,11.42-12.46,20.14-21.91,26.16s-20.48,9.02-33.09,9.02-23.24-3.02-32.76-9.08c-9.53-6.05-16.92-14.68-22.18-25.89-5.26-11.21-7.97-24.19-8.11-38.94v-11.28c0-15.04,2.61-28.32,7.84-39.85,5.23-11.53,12.62-20.36,22.18-26.48s20.5-9.18,32.82-9.18,23.58,3.03,33.14,9.08c9.56,6.05,16.92,14.82,22.08,26.32s7.73,24.87,7.73,40.12v9.88ZM663.12,330.16c0-18.55-3.72-32.78-11.17-42.7-7.45-9.92-17.87-14.88-31.26-14.88s-23.29,4.96-30.78,14.88c-7.48,9.92-11.33,23.69-11.55,41.3v11.49c0,17.98,3.78,32.1,11.33,42.38,7.55,10.28,17.96,15.42,31.21,15.42s23.63-4.85,30.94-14.56c7.3-9.7,11.06-23.61,11.28-41.73v-11.6Z"/>
        <path class="cls-1" d="M771.94,350.14h-36.74v63.27h-20.73v-156.41h51.78c17.62,0,31.17,4.01,40.66,12.03,9.49,8.02,14.23,19.7,14.23,35.02,0,9.74-2.63,18.23-7.9,25.46-5.26,7.23-12.59,12.64-21.97,16.22l36.74,66.39v1.29h-22.13l-33.95-63.27ZM735.2,333.27h31.69c10.24,0,18.39-2.65,24.44-7.96,6.05-5.31,9.08-12.41,9.08-21.31,0-9.68-2.88-17.11-8.65-22.28-5.77-5.17-14.09-7.78-24.98-7.86h-31.58v59.4Z"/>
        <path class="cls-1" d="M897.73,335.53l40.82-78.53h23.42l-53.93,98.08v58.33h-20.62v-58.33l-53.93-98.08h23.63l40.61,78.53Z"/>
      </g>
    </g>
    <g>
      <path class="cls-1" d="M537.35,736.09c-5.67,8.98-12.43,16.21-20.29,21.68-7.86,5.47-16.48,8.2-25.85,8.2-12.3,0-23.02-4.03-32.15-12.11-9.13-8.07-16.19-19.43-21.17-34.08s-7.47-30.83-7.47-48.54c0-19.01,2.71-36.13,8.13-51.37s13.11-26.89,23.07-34.96c9.96-8.07,21.58-12.11,34.86-12.11,21.09,0,37.72,10.52,49.88,31.54,12.16,21.03,18.24,49.71,18.24,86.04v10.55c0,55.34-8.2,95.74-24.61,121.19-16.41,25.46-41.16,38.51-74.27,39.16h-5.27v-30.66h5.71c22.36-.52,39.55-8.28,51.56-23.29s18.55-38.75,19.63-71.24ZM495.6,736.09c9.08,0,17.45-3.71,25.12-11.13,7.67-7.42,13.26-16.6,16.77-27.54v-14.45c0-23.7-3.86-42.97-11.57-57.81-7.72-14.84-17.48-22.27-29.3-22.27s-21.49,6.09-28.71,18.26c-7.23,12.18-10.84,28.22-10.84,48.14s3.49,35.38,10.47,47.95c6.98,12.57,16.33,18.85,28.05,18.85Z"/>
      <path class="cls-1" d="M460.45,862.79h-1.5v-33.66h7.21c21.76-.5,38.73-8.15,50.39-22.73,11.09-13.86,17.5-35.73,19.07-65.05-5.12,7.11-11.06,13.04-17.7,17.66-8.08,5.62-17.07,8.47-26.71,8.47-12.63,0-23.78-4.2-33.15-12.49-9.28-8.21-16.55-19.89-21.59-34.72-5.01-14.74-7.55-31.23-7.55-49.02,0-19.09,2.76-36.54,8.22-51.87,5.49-15.42,13.41-27.41,23.54-35.62,10.19-8.26,22.24-12.44,35.81-12.44,21.57,0,38.79,10.86,51.18,32.29,12.23,21.16,18.44,50.36,18.44,86.79v10.55c0,55.37-8.36,96.42-24.85,122-16.62,25.78-42.02,39.19-75.5,39.85h-5.3ZM461.95,859.79h3.77c32.39-.64,56.97-13.58,73.01-38.47,16.17-25.09,24.37-65.59,24.37-120.38v-10.55c0-35.89-6.07-64.58-18.04-85.28-11.82-20.43-28.16-30.79-48.58-30.79-12.87,0-24.28,3.96-33.92,11.77-9.7,7.86-17.3,19.4-22.6,34.3-5.34,15-8.04,32.11-8.04,50.86,0,17.46,2.49,33.63,7.39,48.05,4.87,14.33,11.85,25.58,20.74,33.44,8.8,7.79,19.29,11.73,31.16,11.73,9.02,0,17.43-2.67,25-7.93,7.66-5.33,14.35-12.48,19.88-21.25l2.95-4.68-.18,5.53c-1.08,32.67-7.8,56.93-19.96,72.13-12.25,15.3-29.98,23.33-52.7,23.85h-4.25v27.66ZM495.6,737.59c-12.25,0-22.13-6.6-29.36-19.62-7.07-12.73-10.66-29.11-10.66-48.68s3.72-36.56,11.05-48.91c7.48-12.6,17.58-19,30-19s22.67,7.76,30.63,23.07c7.79,14.99,11.74,34.68,11.74,58.5v14.69l-.07.22c-3.57,11.12-9.35,20.6-17.16,28.16-7.92,7.67-16.72,11.56-26.17,11.56ZM496.63,604.39c-11.45,0-20.42,5.73-27.42,17.53-7.05,11.88-10.63,27.82-10.63,47.38s3.46,34.94,10.28,47.22c6.76,12.16,15.5,18.08,26.74,18.08,8.64,0,16.74-3.6,24.08-10.71,7.4-7.17,12.89-16.15,16.32-26.7v-14.22c0-23.34-3.84-42.56-11.4-57.12-7.4-14.24-16.81-21.46-27.97-21.46Z"/>
    </g>
  </g>
  <path class="cls-1" d="M753.87,210H246.13c-53.09,0-96.13-43.04-96.13-96.13v-7.74c0-53.09,43.04-96.13,96.13-96.13h507.74c53.09,0,96.13,43.04,96.13,96.13v7.74c0,53.09-43.04,96.13-96.13,96.13ZM539.01,138.45c-1.91,12.3-5.79,20.94-11.64,25.89-5.84,4.96-14.24,7.43-25.17,7.43-12.17,0-21.64-4.79-28.4-14.37-6.77-9.58-10.15-22.48-10.15-38.69v-14.47c0-17.17,3.57-30.41,10.72-39.71,7.14-9.3,17-13.96,29.58-13.96,10.25,0,18.23,2.67,23.94,8.02,5.71,5.35,9.42,13.99,11.13,25.92h19.79c-1.57-15.65-7.14-27.91-16.71-36.76-9.57-8.85-22.29-13.28-38.14-13.28-11.96,0-22.49,2.82-31.58,8.46-9.09,5.64-16.12,13.72-21.07,24.25-4.96,10.53-7.43,22.73-7.43,36.61v14.36c0,21.19,5.31,38.11,15.94,50.76,10.63,12.65,24.76,18.97,42.4,18.97,16.27,0,29.31-4.29,39.12-12.87,9.81-8.58,15.64-20.76,17.48-36.56h-19.79Z"/>
</svg>