<?xml version="1.0" encoding="UTF-8"?>
<svg id="Merged" xmlns="http://www.w3.org/2000/svg" viewBox="0 0 1000 1000">
  <defs>
    <style>
      .cls-1 {
        fill: #231815;
      }
    </style>
  </defs>
  <g>
    <path id="regist_x5F_border" class="cls-1" d="M765,450v530H235V450h530M775,440H225v550h550V440h0Z"/>
    <g>
      <path class="cls-1" d="M80.79,257l51.13,127.62,51.13-127.62h26.75v156.41h-20.62v-60.91l1.93-65.74-51.35,126.65h-15.79l-51.24-126.33,2.04,65.42v60.91h-20.62v-156.41h26.64Z"/>
      <path class="cls-1" d="M334.62,341.12h-67.78v55.43h78.74v16.87h-99.37v-156.41h98.29v16.87h-77.67v50.38h67.78v16.87Z"/>
      <path class="cls-1" d="M397.9,257l51.13,127.62,51.13-127.62h26.75v156.41h-20.62v-60.91l1.93-65.74-51.35,126.65h-15.79l-51.24-126.33,2.04,65.42v60.91h-20.62v-156.41h26.64Z"/>
      <path class="cls-1" d="M683.64,340.26c0,15.33-2.58,28.7-7.73,40.12-5.16,11.42-12.46,20.14-21.91,26.16s-20.48,9.02-33.09,9.02-23.24-3.02-32.76-9.08c-9.53-6.05-16.92-14.68-22.18-25.89-5.26-11.21-7.97-24.19-8.11-38.94v-11.28c0-15.04,2.61-28.32,7.84-39.85,5.23-11.53,12.62-20.36,22.18-26.48s20.5-9.18,32.82-9.18,23.58,3.03,33.14,9.08c9.56,6.05,16.92,14.82,22.08,26.32s7.73,24.87,7.73,40.12v9.88ZM663.12,330.16c0-18.55-3.72-32.78-11.17-42.7-7.45-9.92-17.87-14.88-31.26-14.88s-23.29,4.96-30.78,14.88c-7.48,9.92-11.33,23.69-11.55,41.3v11.49c0,17.98,3.78,32.1,11.33,42.38,7.55,10.28,17.96,15.42,31.21,15.42s23.63-4.85,30.94-14.56c7.3-9.7,11.06-23.61,11.28-41.73v-11.6Z"/>
      <path class="cls-1" d="M771.94,350.14h-36.74v63.27h-20.73v-156.41h51.78c17.62,0,31.17,4.01,40.66,12.03,9.49,8.02,14.23,19.7,14.23,35.02,0,9.74-2.63,18.23-7.9,25.46-5.26,7.23-12.59,12.64-21.97,16.22l36.74,66.39v1.29h-22.13l-33.95-63.27ZM735.2,333.27h31.69c10.24,0,18.39-2.65,24.44-7.96,6.05-5.31,9.08-12.41,9.08-21.31,0-9.68-2.88-17.11-8.65-22.27-5.77-5.17-14.09-7.78-24.98-7.86h-31.58v59.4Z"/>
      <path class="cls-1" d="M897.73,335.53l40.82-78.53h23.42l-53.93,98.08v58.33h-20.62v-58.33l-53.93-98.08h23.63l40.61,78.53Z"/>
    </g>
  </g>
  <g>
    <g>
      <path class="cls-1" d="M438.33,861.09h-27.25v-240.82l-54.64,26.76v-32.81l77.64-38.87h4.25v285.74Z"/>
      <path class="cls-1" d="M439.83,862.59h-30.25v-239.92l-54.64,26.76v-36.14l78.78-39.44h6.1v288.74ZM412.58,859.59h24.25v-282.74h-2.39l-76.49,38.29v29.48l54.64-26.76v241.73Z"/>
    </g>
    <g>
      <path class="cls-1" d="M657.47,861.09h-139.75v-25.98l73.83-109.38c10.94-16.53,18.48-29.98,22.63-40.33,4.15-10.35,6.23-21.06,6.23-32.13,0-14.84-3.37-27.02-10.11-36.52-6.74-9.5-15.72-14.26-26.95-14.26-13.48,0-23.95,5.11-31.42,15.33-7.47,10.22-11.21,24.45-11.21,42.68h-27.1c0-26.17,6.32-47.33,18.97-63.48,12.65-16.14,29.56-24.22,50.76-24.22,19.82,0,35.5,6.93,47.02,20.8,11.52,13.87,17.29,32.32,17.29,55.37,0,28-13.38,61.33-40.14,100l-57.13,82.62h107.08v29.49Z"/>
      <path class="cls-1" d="M658.97,862.59h-142.75v-27.94l.26-.38,73.83-109.38c10.82-16.36,18.39-29.84,22.48-40.05,4.06-10.13,6.12-20.75,6.12-31.57,0-14.46-3.31-26.45-9.83-35.66-6.5-9.17-14.92-13.63-25.73-13.63-12.91,0-23.07,4.95-30.21,14.72-7.24,9.91-10.92,23.97-10.92,41.79v1.5h-30.1v-1.5c0-26.39,6.49-48.06,19.29-64.4,12.89-16.45,30.36-24.79,51.94-24.79,20.2,0,36.41,7.18,48.18,21.34,11.7,14.08,17.63,33.03,17.63,56.33,0,28.17-13.59,62.1-40.4,100.85l-55.5,80.26h105.72v32.49ZM519.22,859.59h136.75v-26.49h-108.44l58.76-84.97c26.46-38.24,39.87-71.6,39.87-99.15,0-22.58-5.7-40.88-16.94-54.41-11.17-13.44-26.6-20.26-45.87-20.26-20.61,0-37.29,7.95-49.58,23.64-12.13,15.49-18.4,36.03-18.64,61.05h24.1c.2-17.76,4.07-31.91,11.49-42.06,7.73-10.58,18.71-15.95,32.63-15.95,11.69,0,21.17,5.01,28.18,14.89,6.89,9.72,10.38,22.3,10.38,37.39,0,11.21-2.13,22.2-6.33,32.69-4.17,10.4-11.83,24.06-22.77,40.6l-73.58,109.01v24.02Z"/>
    </g>
  </g>
</svg>