<?xml version="1.0" encoding="UTF-8"?>
<svg id="Merged" xmlns="http://www.w3.org/2000/svg" viewBox="0 0 1000 1000">
  <defs>
    <style>
      .cls-1 {
        fill: #231815;
      }
    </style>
  </defs>
  <g>
    <g>
      <path id="regist_x5F_border" class="cls-1" d="M765,450v530H235V450h530M775,440H225v550h550V440h0Z"/>
      <g>
        <path class="cls-1" d="M80.79,257l51.13,127.62,51.13-127.62h26.75v156.41h-20.62v-60.91l1.93-65.74-51.35,126.65h-15.79l-51.24-126.33,2.04,65.42v60.91h-20.62v-156.41h26.64Z"/>
        <path class="cls-1" d="M334.62,341.12h-67.78v55.43h78.74v16.87h-99.37v-156.41h98.29v16.87h-77.67v50.38h67.78v16.87Z"/>
        <path class="cls-1" d="M397.9,257l51.13,127.62,51.13-127.62h26.75v156.41h-20.62v-60.91l1.93-65.74-51.35,126.65h-15.79l-51.24-126.33,2.04,65.42v60.91h-20.62v-156.41h26.64Z"/>
        <path class="cls-1" d="M683.64,340.26c0,15.33-2.58,28.7-7.73,40.12-5.16,11.42-12.46,20.14-21.91,26.16s-20.48,9.02-33.09,9.02-23.24-3.02-32.76-9.08c-9.53-6.05-16.92-14.68-22.18-25.89-5.26-11.21-7.97-24.19-8.11-38.94v-11.28c0-15.04,2.61-28.32,7.84-39.85,5.23-11.53,12.62-20.36,22.18-26.48s20.5-9.18,32.82-9.18,23.58,3.03,33.14,9.08c9.56,6.05,16.92,14.82,22.08,26.32s7.73,24.87,7.73,40.12v9.88ZM663.12,330.16c0-18.55-3.72-32.78-11.17-42.7-7.45-9.92-17.87-14.88-31.26-14.88s-23.29,4.96-30.78,14.88c-7.48,9.92-11.33,23.69-11.55,41.3v11.49c0,17.98,3.78,32.1,11.33,42.38,7.55,10.28,17.96,15.42,31.21,15.42s23.63-4.85,30.94-14.56c7.3-9.7,11.06-23.61,11.28-41.73v-11.6Z"/>
        <path class="cls-1" d="M771.94,350.14h-36.74v63.27h-20.73v-156.41h51.78c17.62,0,31.17,4.01,40.66,12.03,9.49,8.02,14.23,19.7,14.23,35.02,0,9.74-2.63,18.23-7.9,25.46-5.26,7.23-12.59,12.64-21.97,16.22l36.74,66.39v1.29h-22.13l-33.95-63.27ZM735.2,333.27h31.69c10.24,0,18.39-2.65,24.44-7.96,6.05-5.31,9.08-12.41,9.08-21.31,0-9.68-2.88-17.11-8.65-22.27-5.77-5.17-14.09-7.78-24.98-7.86h-31.58v59.4Z"/>
        <path class="cls-1" d="M897.73,335.53l40.82-78.53h23.42l-53.93,98.08v58.33h-20.62v-58.33l-53.93-98.08h23.63l40.61,78.53Z"/>
      </g>
    </g>
    <g>
      <path class="cls-1" d="M522.56,861.09h-27.25v-240.82l-54.64,26.76v-32.81l77.64-38.87h4.25v285.74Z"/>
      <path class="cls-1" d="M524.06,862.59h-30.25v-239.92l-54.64,26.76v-36.14l78.78-39.44h6.1v288.74ZM496.81,859.59h24.25v-282.74h-2.39l-76.49,38.29v29.48l54.64-26.76v241.73Z"/>
    </g>
  </g>
  <path class="cls-1" d="M753.87,210H246.13c-53.09,0-96.13-43.04-96.13-96.13v-7.74c0-53.09,43.04-96.13,96.13-96.13h507.74c53.09,0,96.13,43.04,96.13,96.13v7.74c0,53.09-43.04,96.13-96.13,96.13ZM503.74,185.83c15.86,0,28.13-3.83,36.81-11.48,8.68-7.66,13.02-18.18,13.02-31.58,0-8.75-2.34-16.29-7.02-22.61-4.68-6.32-11.06-10.61-19.12-12.87,6.83-2.94,12.24-7.09,16.2-12.46,3.96-5.37,5.95-11.54,5.95-18.51,0-13.12-4.09-23.04-12.25-29.74-8.17-6.7-20.35-10.05-36.56-10.05h-48.81v149.3h51.78ZM471.65,52.63h29.12c9.77,0,17.06,1.87,21.84,5.6,4.78,3.73,7.18,9.71,7.18,17.93,0,7.4-2.58,13.26-7.74,17.57-5.16,4.32-12.05,6.47-20.66,6.47h-29.74v-47.58ZM504.46,116c19.55,0,29.33,8.99,29.33,26.97,0,8.34-2.65,14.89-7.95,19.64-5.3,4.75-12.53,7.13-21.69,7.13h-32.5v-53.73h32.81Z"/>
</svg>