<?xml version="1.0" encoding="UTF-8"?>
<svg id="Merged" xmlns="http://www.w3.org/2000/svg" viewBox="0 0 1000 1000">
  <defs>
    <style>
      .cls-1 {
        fill: #231815;
      }
    </style>
  </defs>
  <g>
    <g>
      <path id="regist_x5F_border" class="cls-1" d="M765,450v530H235V450h530M775,440H225v550h550V440h0Z"/>
      <g>
        <path class="cls-1" d="M80.79,257l51.13,127.62,51.13-127.62h26.75v156.41h-20.62v-60.91l1.93-65.74-51.35,126.65h-15.79l-51.24-126.33,2.04,65.42v60.91h-20.62v-156.41h26.64Z"/>
        <path class="cls-1" d="M334.62,341.12h-67.78v55.43h78.74v16.87h-99.37v-156.41h98.29v16.87h-77.67v50.38h67.78v16.87Z"/>
        <path class="cls-1" d="M397.9,257l51.13,127.62,51.13-127.62h26.75v156.41h-20.62v-60.91l1.93-65.74-51.35,126.65h-15.79l-51.24-126.33,2.04,65.42v60.91h-20.62v-156.41h26.64Z"/>
        <path class="cls-1" d="M683.64,340.26c0,15.33-2.58,28.7-7.73,40.12-5.16,11.42-12.46,20.14-21.91,26.16s-20.48,9.02-33.09,9.02-23.24-3.02-32.76-9.08c-9.53-6.05-16.92-14.68-22.18-25.89-5.26-11.21-7.97-24.19-8.11-38.94v-11.28c0-15.04,2.61-28.32,7.84-39.85,5.23-11.53,12.62-20.36,22.18-26.48s20.5-9.18,32.82-9.18,23.58,3.03,33.14,9.08c9.56,6.05,16.92,14.82,22.08,26.32s7.73,24.87,7.73,40.12v9.88ZM663.12,330.16c0-18.55-3.72-32.78-11.17-42.7-7.45-9.92-17.87-14.88-31.26-14.88s-23.29,4.96-30.78,14.88c-7.48,9.92-11.33,23.69-11.55,41.3v11.49c0,17.98,3.78,32.1,11.33,42.38,7.55,10.28,17.96,15.42,31.21,15.42s23.63-4.85,30.94-14.56c7.3-9.7,11.06-23.61,11.28-41.73v-11.6Z"/>
        <path class="cls-1" d="M771.94,350.14h-36.74v63.27h-20.73v-156.41h51.78c17.62,0,31.17,4.01,40.66,12.03,9.49,8.02,14.23,19.7,14.23,35.02,0,9.74-2.63,18.23-7.9,25.46-5.26,7.23-12.59,12.64-21.97,16.22l36.74,66.39v1.29h-22.13l-33.95-63.27ZM735.2,333.27h31.69c10.24,0,18.39-2.65,24.44-7.96,6.05-5.31,9.08-12.41,9.08-21.31,0-9.68-2.88-17.11-8.65-22.28-5.77-5.17-14.09-7.78-24.98-7.86h-31.58v59.4Z"/>
        <path class="cls-1" d="M897.73,335.53l40.82-78.53h23.42l-53.93,98.08v58.33h-20.62v-58.33l-53.93-98.08h23.63l40.61,78.53Z"/>
      </g>
    </g>
    <g>
      <g>
        <path class="cls-1" d="M438.33,861.09h-27.25v-240.82l-54.64,26.76v-32.81l77.64-38.87h4.25v285.74Z"/>
        <path class="cls-1" d="M439.83,862.59h-30.25v-239.92l-54.64,26.76v-36.14l.83-.41,77.95-39.03h6.1v288.74ZM412.58,859.59h24.25v-282.74h-2.39l-76.49,38.29v29.48l54.64-26.76v241.72Z"/>
      </g>
      <g>
        <path class="cls-1" d="M530.17,718.52l10.84-141.8h109.28v33.4h-86.28l-6.45,77.54c10.45-8.2,22.31-12.3,35.6-12.3,19.43,0,34.86,8.56,46.29,25.68,11.43,17.12,17.14,40.27,17.14,69.43s-5.93,52.38-17.8,69.24c-11.87,16.86-28.44,25.29-49.73,25.29-18.85,0-34.23-6.96-46.14-20.9-11.92-13.93-18.7-33.2-20.36-57.81h25.63c1.66,16.28,6.01,28.55,13.04,36.82,7.03,8.27,16.31,12.4,27.83,12.4,12.6,0,22.49-5.73,29.66-17.19,7.18-11.46,10.77-27.28,10.77-47.46,0-19.01-3.88-34.28-11.65-45.8s-18.09-17.29-30.98-17.29c-11.82,0-21.09,3.45-27.83,10.35l-7.18,7.81-21.68-7.42Z"/>
        <path class="cls-1" d="M589.06,866.5c-19.22,0-35.13-7.21-47.28-21.42-12.07-14.12-19.04-33.86-20.72-58.69l-.11-1.6h28.59l.14,1.35c1.62,15.89,5.89,28,12.69,36,6.7,7.88,15.68,11.87,26.69,11.87,12.16,0,21.44-5.39,28.39-16.48,6.99-11.16,10.54-26.86,10.54-46.67,0-18.62-3.83-33.75-11.39-44.96-7.54-11.19-17.26-16.62-29.74-16.62-11.34,0-20.34,3.33-26.76,9.9l-7.81,8.5-23.71-8.12,11.03-144.34h112.17v36.4h-86.4l-6.06,72.85c10.03-7.05,21.39-10.62,33.83-10.62,19.87,0,35.87,8.87,47.54,26.35,11.54,17.29,17.39,40.94,17.39,70.27s-6.08,53.06-18.07,70.1c-12.11,17.21-29.25,25.93-50.96,25.93ZM524.17,787.79c1.81,23.41,8.5,42.02,19.89,55.34,11.56,13.52,26.7,20.37,45,20.37,20.67,0,36.99-8.3,48.5-24.66,11.63-16.52,17.52-39.53,17.52-68.38s-5.68-51.81-16.89-68.6c-11.08-16.6-26.23-25.02-45.04-25.02-12.88,0-24.54,4.03-34.67,11.98l-2.71,2.12,6.84-82.34h86.16v-30.4h-106.39l-10.65,139.25,19.65,6.73,6.51-7.09c7.03-7.2,16.76-10.84,28.94-10.84,13.36,0,24.2,6.04,32.23,17.95,7.9,11.72,11.9,27.41,11.9,46.64,0,20.38-3.7,36.61-11,48.26-7.44,11.87-17.84,17.89-30.93,17.89-11.93,0-21.68-4.35-28.97-12.93-7-8.23-11.46-20.44-13.24-36.29h-22.67Z"/>
      </g>
    </g>
  </g>
  <path class="cls-1" d="M753.87,210H246.13c-53.09,0-96.13-43.04-96.13-96.13v-7.74c0-53.09,43.04-96.13,96.13-96.13h507.74c53.09,0,96.13,43.04,96.13,96.13v7.74c0,53.09-43.04,96.13-96.13,96.13ZM539.01,138.45c-1.91,12.3-5.79,20.94-11.64,25.89-5.84,4.96-14.24,7.43-25.17,7.43-12.17,0-21.64-4.79-28.4-14.37-6.77-9.58-10.15-22.48-10.15-38.69v-14.47c0-17.17,3.57-30.41,10.72-39.71,7.14-9.3,17-13.96,29.58-13.96,10.25,0,18.23,2.67,23.94,8.02,5.71,5.35,9.42,13.99,11.13,25.92h19.79c-1.57-15.65-7.14-27.91-16.71-36.76-9.57-8.85-22.29-13.28-38.14-13.28-11.96,0-22.49,2.82-31.58,8.46-9.09,5.64-16.12,13.72-21.07,24.25-4.96,10.53-7.43,22.73-7.43,36.61v14.36c0,21.19,5.31,38.11,15.94,50.76,10.63,12.65,24.76,18.97,42.4,18.97,16.27,0,29.31-4.29,39.12-12.87,9.81-8.58,15.64-20.76,17.48-36.56h-19.79Z"/>
</svg>