<?xml version="1.0" encoding="UTF-8"?>
<svg id="Merged" xmlns="http://www.w3.org/2000/svg" viewBox="0 0 1000 1000">
  <defs>
    <style>
      .cls-1 {
        fill: #231815;
      }
    </style>
  </defs>
  <g>
    <g>
      <path id="regist_x5F_border" class="cls-1" d="M765,450v530H235V450h530M775,440H225v550h550V440h0Z"/>
      <g>
        <path class="cls-1" d="M80.79,257l51.13,127.62,51.13-127.62h26.75v156.41h-20.62v-60.91l1.93-65.74-51.35,126.65h-15.79l-51.24-126.33,2.04,65.42v60.91h-20.62v-156.41h26.64Z"/>
        <path class="cls-1" d="M334.62,341.12h-67.78v55.43h78.74v16.87h-99.37v-156.41h98.29v16.87h-77.67v50.38h67.78v16.87Z"/>
        <path class="cls-1" d="M397.9,257l51.13,127.62,51.13-127.62h26.75v156.41h-20.62v-60.91l1.93-65.74-51.35,126.65h-15.79l-51.24-126.33,2.04,65.42v60.91h-20.62v-156.41h26.64Z"/>
        <path class="cls-1" d="M683.64,340.26c0,15.33-2.58,28.7-7.73,40.12-5.16,11.42-12.46,20.14-21.91,26.16s-20.48,9.02-33.09,9.02-23.24-3.02-32.76-9.08c-9.53-6.05-16.92-14.68-22.18-25.89-5.26-11.21-7.97-24.19-8.11-38.94v-11.28c0-15.04,2.61-28.32,7.84-39.85,5.23-11.53,12.62-20.36,22.18-26.48s20.5-9.18,32.82-9.18,23.58,3.03,33.14,9.08c9.56,6.05,16.92,14.82,22.08,26.32s7.73,24.87,7.73,40.12v9.88ZM663.12,330.16c0-18.55-3.72-32.78-11.17-42.7-7.45-9.92-17.87-14.88-31.26-14.88s-23.29,4.96-30.78,14.88c-7.48,9.92-11.33,23.69-11.55,41.3v11.49c0,17.98,3.78,32.1,11.33,42.38,7.55,10.28,17.96,15.42,31.21,15.42s23.63-4.85,30.94-14.56c7.3-9.7,11.06-23.61,11.28-41.73v-11.6Z"/>
        <path class="cls-1" d="M771.94,350.14h-36.74v63.27h-20.73v-156.41h51.78c17.62,0,31.17,4.01,40.66,12.03,9.49,8.02,14.23,19.7,14.23,35.02,0,9.74-2.63,18.23-7.9,25.46-5.26,7.23-12.59,12.64-21.97,16.22l36.74,66.39v1.29h-22.13l-33.95-63.27ZM735.2,333.27h31.69c10.24,0,18.39-2.65,24.44-7.96,6.05-5.31,9.08-12.41,9.08-21.31,0-9.68-2.88-17.11-8.65-22.27-5.77-5.17-14.09-7.78-24.98-7.86h-31.58v59.4Z"/>
        <path class="cls-1" d="M897.73,335.53l40.82-78.53h23.42l-53.93,98.08v58.33h-20.62v-58.33l-53.93-98.08h23.63l40.61,78.53Z"/>
      </g>
    </g>
    <g>
      <g>
        <path class="cls-1" d="M438.33,861.09h-27.25v-240.82l-54.64,26.76v-32.81l77.64-38.87h4.25v285.74Z"/>
        <path class="cls-1" d="M439.83,862.59h-30.25v-239.92l-54.64,26.76v-36.14l78.78-39.44h6.1v288.74ZM412.58,859.59h24.25v-282.74h-2.39l-76.49,38.29v29.48l54.64-26.76v241.73Z"/>
      </g>
      <g>
        <path class="cls-1" d="M624.07,576.52v30.66h-4.98c-21.09.52-37.89,8.86-50.39,25-12.5,16.15-19.73,38.87-21.68,68.16,11.23-17.19,26.56-25.78,46-25.78s33.37,8.73,44.46,26.17c11.08,17.45,16.63,39.97,16.63,67.58,0,29.3-5.98,52.73-17.94,70.31-11.96,17.58-28,26.37-48.12,26.37s-36.96-10.45-49.66-31.35c-12.7-20.9-19.04-47.82-19.04-80.76v-13.87c0-52.34,8.37-92.35,25.12-120.02,16.75-27.67,41.67-41.83,74.78-42.48h4.83ZM588.47,704.65c-9.28,0-17.82,3.71-25.63,11.13-7.81,7.42-13.23,16.73-16.26,27.93v13.28c0,23.44,3.96,42.32,11.87,56.64,7.91,14.33,17.77,21.48,29.59,21.48s21.8-5.99,28.78-17.97c6.98-11.98,10.47-27.67,10.47-47.07s-3.54-35.32-10.62-47.36c-7.08-12.04-16.48-18.07-28.2-18.07Z"/>
        <path class="cls-1" d="M588.03,866.5c-20.88,0-38.01-10.79-50.94-32.07-12.78-21.04-19.26-48.47-19.26-81.54v-13.87c0-52.38,8.53-93.02,25.34-120.8,16.95-28.01,42.53-42.54,76.03-43.2h6.36s0,33.66,0,33.66h-6.48c-20.49.51-37.05,8.72-49.2,24.42-11.48,14.83-18.51,35.64-20.94,61.92,11.16-14.58,25.96-21.96,44.07-21.96,19.01,0,34.4,9.04,45.72,26.87,11.19,17.62,16.86,40.62,16.86,68.38,0,29.46-6.12,53.4-18.2,71.16-12.2,17.93-28.81,27.02-49.36,27.02ZM619.24,578.02c-32.37.64-57.11,14.69-73.5,41.76-16.53,27.3-24.91,67.42-24.91,119.24v13.87c0,32.51,6.33,59.42,18.83,79.98,12.34,20.32,28.62,30.63,48.38,30.63s35.27-8.65,46.88-25.71c11.73-17.25,17.68-40.62,17.68-69.47,0-27.18-5.51-49.65-16.39-66.77-10.74-16.9-25.27-25.48-43.19-25.48-18.8,0-33.86,8.45-44.74,25.1l-3.13,4.8.38-5.72c1.96-29.46,9.36-52.67,21.99-68.98,12.73-16.44,30.07-25.05,51.54-25.58h3.52v-27.66h-3.33ZM588.03,836.62c-12.35,0-22.75-7.49-30.9-22.26-8-14.48-12.05-33.78-12.05-57.37v-13.48l.05-.19c3.09-11.42,8.7-21.05,16.67-28.63,8.06-7.66,17.04-11.55,26.67-11.55,12.23,0,22.15,6.33,29.49,18.81,7.18,12.22,10.83,28.42,10.83,48.12s-3.59,35.67-10.68,47.83c-7.24,12.42-17.36,18.71-30.08,18.71ZM548.08,743.91v13.08c0,23.07,3.93,41.88,11.68,55.92,7.59,13.74,17.1,20.71,28.28,20.71,11.74,0,20.73-5.63,27.49-17.22,6.81-11.69,10.27-27.28,10.27-46.31s-3.5-34.85-10.41-46.6c-6.86-11.66-15.66-17.33-26.91-17.33-8.84,0-17.11,3.61-24.6,10.72-7.53,7.15-12.84,16.25-15.79,27.04Z"/>
      </g>
    </g>
  </g>
  <path class="cls-1" d="M753.87,210H246.13c-53.09,0-96.13-43.04-96.13-96.13v-7.74c0-53.09,43.04-96.13,96.13-96.13h507.74c53.09,0,96.13,43.04,96.13,96.13v7.74c0,53.09-43.04,96.13-96.13,96.13ZM503.74,185.83c15.86,0,28.13-3.83,36.81-11.48,8.68-7.66,13.02-18.18,13.02-31.58,0-8.75-2.34-16.29-7.02-22.61-4.68-6.32-11.06-10.61-19.12-12.87,6.84-2.94,12.24-7.09,16.2-12.46,3.96-5.37,5.95-11.54,5.95-18.51,0-13.12-4.08-23.04-12.25-29.74-8.17-6.7-20.35-10.05-36.56-10.05h-48.81v149.3h51.78ZM471.65,52.63h29.12c9.77,0,17.06,1.87,21.84,5.6,4.78,3.73,7.18,9.71,7.18,17.93,0,7.4-2.58,13.26-7.74,17.57-5.16,4.32-12.05,6.47-20.66,6.47h-29.74v-47.58ZM504.46,116c19.55,0,29.33,8.99,29.33,26.97,0,8.34-2.65,14.89-7.95,19.64-5.3,4.75-12.53,7.13-21.69,7.13h-32.5v-53.73h32.81Z"/>
</svg>