<?xml version="1.0" encoding="UTF-8"?>
<svg id="Merged" xmlns="http://www.w3.org/2000/svg" viewBox="0 0 1000 1000">
  <defs>
    <style>
      .cls-1 {
        fill: #231815;
      }
    </style>
  </defs>
  <g>
    <g>
      <path id="regist_x5F_border" class="cls-1" d="M765,450v530H235V450h530M775,440H225v550h550V440h0Z"/>
      <g>
        <path class="cls-1" d="M80.79,257l51.13,127.62,51.13-127.62h26.75v156.41h-20.62v-60.91l1.93-65.74-51.35,126.65h-15.79l-51.24-126.33,2.04,65.42v60.91h-20.62v-156.41h26.64Z"/>
        <path class="cls-1" d="M334.62,341.12h-67.78v55.43h78.74v16.87h-99.37v-156.41h98.29v16.87h-77.67v50.38h67.78v16.87Z"/>
        <path class="cls-1" d="M397.9,257l51.13,127.62,51.13-127.62h26.75v156.41h-20.62v-60.91l1.93-65.74-51.35,126.65h-15.79l-51.24-126.33,2.04,65.42v60.91h-20.62v-156.41h26.64Z"/>
        <path class="cls-1" d="M683.64,340.26c0,15.33-2.58,28.7-7.73,40.12-5.16,11.42-12.46,20.14-21.91,26.16s-20.48,9.02-33.09,9.02-23.24-3.02-32.76-9.08c-9.53-6.05-16.92-14.68-22.18-25.89-5.26-11.21-7.97-24.19-8.11-38.94v-11.28c0-15.04,2.61-28.32,7.84-39.85,5.23-11.53,12.62-20.36,22.18-26.48s20.5-9.18,32.82-9.18,23.58,3.03,33.14,9.08c9.56,6.05,16.92,14.82,22.08,26.32s7.73,24.87,7.73,40.12v9.88ZM663.12,330.16c0-18.55-3.72-32.78-11.17-42.7-7.45-9.92-17.87-14.88-31.26-14.88s-23.29,4.96-30.78,14.88c-7.48,9.92-11.33,23.69-11.55,41.3v11.49c0,17.98,3.78,32.1,11.33,42.38,7.55,10.28,17.96,15.42,31.21,15.42s23.63-4.85,30.94-14.56c7.3-9.7,11.06-23.61,11.28-41.73v-11.6Z"/>
        <path class="cls-1" d="M771.94,350.14h-36.74v63.27h-20.73v-156.41h51.78c17.62,0,31.17,4.01,40.66,12.03,9.49,8.02,14.23,19.7,14.23,35.02,0,9.74-2.63,18.23-7.9,25.46-5.26,7.23-12.59,12.64-21.97,16.22l36.74,66.39v1.29h-22.13l-33.95-63.27ZM735.2,333.27h31.69c10.24,0,18.39-2.65,24.44-7.96,6.05-5.31,9.08-12.41,9.08-21.31,0-9.68-2.88-17.11-8.65-22.27-5.77-5.17-14.09-7.78-24.98-7.86h-31.58v59.4Z"/>
        <path class="cls-1" d="M897.73,335.53l40.82-78.53h23.42l-53.93,98.08v58.33h-20.62v-58.33l-53.93-98.08h23.63l40.61,78.53Z"/>
      </g>
    </g>
    <g>
      <g>
        <path class="cls-1" d="M438.33,861.09h-27.25v-240.82l-54.64,26.76v-32.81l77.64-38.87h4.25v285.74Z"/>
        <path class="cls-1" d="M439.83,862.59h-30.25v-239.92l-54.64,26.76v-36.14l78.78-39.44h6.1v288.74ZM412.58,859.59h24.25v-282.74h-2.39l-76.49,38.29v29.48l54.64-26.76v241.73Z"/>
      </g>
      <g>
        <path class="cls-1" d="M651.46,739.8c0,42.32-5.42,73.76-16.26,94.34-10.84,20.58-27.78,30.86-50.83,30.86s-39.6-10.06-50.54-30.18c-10.94-20.12-16.6-50.16-16.99-90.14v-48.24c0-41.8,5.42-72.85,16.26-93.16s27.83-30.47,50.98-30.47,39.84,9.8,50.68,29.39c10.84,19.6,16.41,49.84,16.7,90.72v46.88ZM624.36,690.39c0-30.6-3.22-52.9-9.67-66.89-6.45-14-16.65-21-30.62-21s-23.98,6.97-30.32,20.9c-6.35,13.93-9.62,35.35-9.81,64.26v57.81c0,30.73,3.34,53.42,10.03,68.07,6.69,14.65,16.82,21.97,30.4,21.97s23.31-6.9,29.81-20.7c6.49-13.8,9.89-35.55,10.18-65.23v-59.18Z"/>
        <path class="cls-1" d="M584.37,866.5c-23.24,0-40.69-10.42-51.85-30.96-11.01-20.24-16.78-50.8-17.17-90.84v-48.26c0-41.85,5.53-73.43,16.44-93.87,11.07-20.74,28.67-31.26,52.3-31.26s40.92,10.15,52,30.17c10.91,19.73,16.59,50.49,16.89,91.44v46.89c0,42.37-5.53,74.34-16.43,95.04-11.07,21.01-28.62,31.66-52.16,31.66ZM584.08,574.31c-22.44,0-39.15,9.98-49.65,29.67-10.67,20-16.08,51.11-16.08,92.46v48.24c.38,39.52,6.04,69.61,16.81,89.42,10.6,19.5,27.16,29.39,49.22,29.39s38.99-10.11,49.5-30.06c10.67-20.26,16.09-51.76,16.09-93.64v-46.88c-.29-40.43-5.85-70.71-16.51-90-10.51-18.99-27.12-28.62-49.37-28.62ZM584.37,837.01c-14.15,0-24.84-7.69-31.76-22.85-6.75-14.77-10.17-37.89-10.17-68.69v-57.81c.19-28.99,3.54-50.82,9.95-64.88,6.58-14.45,17.24-21.78,31.69-21.78s25.29,7.36,31.98,21.87c6.51,14.13,9.81,36.85,9.81,67.52v59.18c-.29,29.78-3.77,51.94-10.32,65.87-6.73,14.31-17.22,21.56-31.17,21.56ZM584.08,604c-13.35,0-22.82,6.55-28.96,20.02-6.23,13.67-9.49,35.09-9.68,63.65v57.8c0,30.37,3.33,53.06,9.9,67.44,6.48,14.2,15.98,21.1,29.03,21.1s22.17-6.49,28.45-19.84c6.37-13.54,9.75-35.28,10.04-64.61v-59.17c0-30.24-3.21-52.53-9.53-66.27-6.24-13.54-15.8-20.12-29.25-20.12Z"/>
      </g>
    </g>
  </g>
  <path class="cls-1" d="M753.87,210H246.13c-53.09,0-96.13-43.04-96.13-96.13v-7.74c0-53.09,43.04-96.13,96.13-96.13h507.74c53.09,0,96.13,43.04,96.13,96.13v7.74c0,53.09-43.04,96.13-96.13,96.13ZM545.52,185.83h20.2l-57.11-149.3h-17.23l-57.01,149.3h20.3l14.05-39.07h62.55l14.25,39.07ZM500,60.83l25.43,69.83h-50.76l25.33-69.83Z"/>
</svg>